<svg width="70" height="70" viewBox="0 0 70 70" xmlns="http://www.w3.org/2000/svg"><title>Group</title><path d="M48.097 43.228c1.906-3.518 2.902-7.745 2.902-11.872 0-10.023-6.636-17.299-15.775-17.299-9.142 0-15.775 7.276-15.775 17.299 0 4.127.995 8.354 2.9 11.872-7.011 2.666-12.938 7.33-12.938 13.354 0 .731.275 1.433.77 1.967 6.588 7.098 15.48 11.008 25.043 11.008 9.56 0 18.455-3.91 25.042-11.008a2.89 2.89 0 0 0 .771-1.967c0-6.025-5.928-10.688-12.94-13.354zM35.224 19.823c6.896 0 10.038 5.978 10.038 11.533 0 5.986-3.114 14.416-10.038 14.416s-10.038-8.43-10.038-14.416c0-5.555 3.14-11.533 10.038-11.533zm0 43.967c-7.514 0-14.538-2.908-19.92-8.218.877-2.883 5.344-5.84 10.75-7.564 2.427 2.174 5.488 3.53 9.17 3.53 3.68 0 6.742-1.357 9.167-3.53 5.409 1.725 9.874 4.68 10.753 7.564-5.384 5.31-12.406 8.218-19.92 8.218zm0-63.43C16.245.36.807 15.881.807 34.96c0 4.931 1.01 9.694 3.003 14.158a2.87 2.87 0 0 0 2.618 1.703c.392 0 .792-.081 1.173-.255a2.89 2.89 0 0 0 1.442-3.81 28.724 28.724 0 0 1-2.5-11.796c0-15.899 12.866-28.832 28.681-28.832 15.814 0 28.681 12.933 28.681 28.832 0 4.109-.843 8.078-2.5 11.794a2.888 2.888 0 0 0 1.442 3.81 2.857 2.857 0 0 0 3.79-1.448 34.49 34.49 0 0 0 3.004-14.156c0-19.08-15.44-34.6-34.417-34.6z" fill="#1A92E2" fill-rule="evenodd"/></svg>