<svg width="28" height="30" viewBox="0 0 28 30" xmlns="http://www.w3.org/2000/svg"><title>noun_68948_cc</title><path d="M19.415 8.527l1.048.606-2.92 9.468c.562.985 1.572 2.84 2.958 2.916 2.17-.454 4.004-5.567 4.266-9.127.337-4.545-3.219-8.9-8.907-9.316C7.813 2.468 3.434 8.338 3.098 13.26c-.638 9.393 6.811 13.37 13.435 13.672L16.271 30C3.883 29.243-.42 21.063.103 13.034.628 5.157 7.326-.562 16.047.044 23.42.536 28.173 6.406 27.76 12.579c-.336 4.886-2.994 11.4-7.223 11.968-2.208.265-4.08-1.932-5.053-3.522a6.113 6.113 0 0 1-3.03.909c-.076-.038-.15-.038-.226-.038-1.721-.114-3.33-1.136-4.303-2.727-1.273-2.045-1.348-4.696-.225-7.233.561-1.212 1.198-2.197 2.058-2.916a5.479 5.479 0 0 1 2.508-1.477c1.46-.492 3.181-.492 4.94.038 1.31.416 2.133.946 2.208.946zm-4.79 9.392l2.245-7.233c-.561-.19-1.272-.455-2.058-.493a4.307 4.307 0 0 0-1.684.228c-1.123.34-2.021 1.211-2.62 2.688-.749 1.667-.749 3.257-.037 4.431.486.834 1.272 1.326 2.02 1.364.823 0 1.722-.606 2.134-.985z" fill="#FFF" fill-rule="evenodd" opacity=".5"/></svg>