<?xml version="1.0" encoding="UTF-8"?>
<svg width="21px" height="32px" viewBox="0 0 21 32" version="1.1" xmlns="http://www.w3.org/2000/svg" xmlns:xlink="http://www.w3.org/1999/xlink">
    <!-- Generator: Sketch 40 (33762) - http://www.bohemiancoding.com/sketch -->
    <title>noun_668192_cc</title>
    <desc>Created with Sketch.</desc>
    <defs></defs>
    <g id="Page-1" stroke="none" stroke-width="1" fill="none" fill-rule="evenodd" opacity="0.5">
        <g id="02-doubler-page" transform="translate(-731.000000, -3863.000000)" fill="#FFFFFF">
            <g id="noun_668192_cc" transform="translate(731.000000, 3863.000000)">
                <g id="Group">
                    <path d="M18.4285714,0.249350649 L2.74285714,0.249350649 C1.41428571,0.249350649 0.342857143,1.28831169 0.342857143,2.57662338 L0.342857143,29.6727273 C0.342857143,30.961039 1.41428571,32 2.74285714,32 L18.4285714,32 C19.7571429,32 20.8285714,30.961039 20.8285714,29.6727273 L20.8285714,2.53506494 C20.8285714,1.28831169 19.7571429,0.249350649 18.4285714,0.249350649 Z M10.5857143,30.1298701 C9.72857143,30.1298701 9,29.4233766 9,28.5922078 C9,27.761039 9.72857143,27.0545455 10.5857143,27.0545455 C11.4428571,27.0545455 12.1714286,27.761039 12.1714286,28.5922078 C12.1714286,29.4649351 11.4857143,30.1298701 10.5857143,30.1298701 Z M18.4714286,25.3922078 L2.74285714,25.3922078 L2.74285714,2.78441558 L18.4714286,2.78441558 L18.4714286,25.3922078 Z" id="Shape"></path>
                </g>
            </g>
        </g>
    </g>
</svg>