<?xml version="1.0" encoding="UTF-8"?>
<svg width="70px" height="70px" viewBox="0 0 70 70" version="1.1" xmlns="http://www.w3.org/2000/svg" xmlns:xlink="http://www.w3.org/1999/xlink">
    <!-- Generator: Sketch 40 (33762) - http://www.bohemiancoding.com/sketch -->
    <title>noun_792711_cc</title>
    <desc>Created with Sketch.</desc>
    <defs></defs>
    <g id="Page-1" stroke="none" stroke-width="1" fill="none" fill-rule="evenodd">
        <g id="02-doubler-page" transform="translate(-333.000000, -675.000000)" fill="#9BD258">
            <g id="noun_792711_cc" transform="translate(333.000000, 675.000000)">
                <g id="Group">
                    <path d="M35,5.83333333 C51.1083052,5.83333333 64.1666667,18.8916948 64.1666667,35 C64.1666667,51.1083052 51.1083052,64.1666667 35,64.1666667 C18.8916948,64.1666667 5.83333333,51.1083052 5.83333333,35 C5.83333333,18.8916948 18.8916948,5.83333333 35,5.83333333 L35,5.83333333 Z M35,0 C15.6700338,1.9250054e-15 2.36723813e-15,15.6700338 0,35 C-2.36723813e-15,54.3299662 15.6700338,70 35,70 C54.3299662,70 70,54.3299662 70,35 C70,25.7174229 66.3125106,16.8150359 59.7487373,10.2512627 C53.1849641,3.68748941 44.2825771,3.67701839e-15 35,3.10862447e-15 L35,0 Z" id="Shape"></path>
                    <polygon id="Shape" points="44.8233333 48.1133333 32.6666667 35.9566667 32.6666667 13.23 37.3333333 13.23 37.3333333 34.0433333 48.1133333 44.8233333"></polygon>
                </g>
            </g>
        </g>
    </g>
</svg>